<svg width="244" height="249" viewBox="0 0 244 249" fill="none" xmlns="http://www.w3.org/2000/svg">
<g filter="url(#filter0_d_4_102)">
<path d="M211.65 139.209C198.583 163.155 173.558 178.001 146.346 178.001C105.337 178.001 72 144.664 72 103.655C72 76.4426 86.8459 51.4176 110.792 38.351C111.929 37.7384 113.329 37.9426 114.233 38.8468C115.167 39.7801 115.371 41.1801 114.729 42.3176C109.217 52.351 106.329 63.6968 106.329 75.1885C106.329 112.959 137.042 143.672 174.813 143.672C186.304 143.672 197.65 140.784 207.683 135.272C208.821 134.63 210.221 134.834 211.154 135.768C212.058 136.672 212.263 138.072 211.65 139.209Z" fill="white"/>
<path d="M155.068 43.6446L152.523 33.8689L142.771 31.3223L152.523 28.7757L155.064 19L157.604 28.7757L167.357 31.3223L157.604 33.8689L155.068 43.6446ZM52.0942 81.0756L50.4018 74.5612L43.8989 72.8607L50.4018 71.1645L52.0942 64.6458L53.7865 71.1645L60.2895 72.8607L53.7865 74.5612L52.0942 81.0756ZM39.2685 195.619L36.9411 186.657L28 184.324L36.9411 181.991L39.2685 173.029L41.6001 181.991L50.5371 184.324L41.6001 186.657L39.2685 195.619ZM193.955 91.373L191.836 83.228L183.711 81.1044L191.836 78.9807L193.955 70.8358L196.073 78.9807L204.199 81.1044L196.073 83.228L193.955 91.373ZM58.2488 56.4638L56.9786 51.5759L52.1024 50.3026L56.9786 49.0293L58.2488 44.1415L59.5191 49.0293L64.3953 50.3026L59.5191 51.5759L58.2488 56.4638ZM208.317 212L206.727 205.888L200.634 204.299L206.727 202.705L208.317 196.597L209.903 202.705L216 204.299L209.903 205.888L208.317 212Z" fill="white"/>
</g>
<defs>
<filter id="filter0_d_4_102" x="0.299999" y="0.299999" width="243.4" height="248.4" filterUnits="userSpaceOnUse" color-interpolation-filters="sRGB">
<feFlood flood-opacity="0" result="BackgroundImageFix"/>
<feColorMatrix in="SourceAlpha" type="matrix" values="0 0 0 0 0 0 0 0 0 0 0 0 0 0 0 0 0 0 127 0" result="hardAlpha"/>
<feOffset dy="9"/>
<feGaussianBlur stdDeviation="13.85"/>
<feComposite in2="hardAlpha" operator="out"/>
<feColorMatrix type="matrix" values="0 0 0 0 0.890196 0 0 0 0 0.168627 0 0 0 0 0.882353 0 0 0 0.8 0"/>
<feBlend mode="normal" in2="BackgroundImageFix" result="effect1_dropShadow_4_102"/>
<feBlend mode="normal" in="SourceGraphic" in2="effect1_dropShadow_4_102" result="shape"/>
</filter>
</defs>
</svg>
